<?xml version="1.0" encoding="utf-8"?>
<!-- Generator: Adobe Illustrator 26.3.1, SVG Export Plug-In . SVG Version: 6.00 Build 0)  -->
<svg version="1.1" id="Layer_1" xmlns="http://www.w3.org/2000/svg" xmlns:xlink="http://www.w3.org/1999/xlink" x="0px" y="0px"
	 viewBox="0 0 150 150" style="enable-background:new 0 0 150 150;" xml:space="preserve">
<style type="text/css">
	.st0{fill:#FFFFFF;}
	.st1{fill:#0A66EC;}
	.st2{fill:#253F9C;}
	.st3{clip-path:url(#SVGID_00000006706080505176328240000015395321562560663713_);}
	.st4{fill:#F46997;}
</style>
<g>
	<path class="st0" d="M75,150L75,150c-41.4,0-75-33.6-75-75v0C0,33.6,33.6,0,75,0h0c41.4,0,75,33.6,75,75v0
		C150,116.4,116.4,150,75,150z"/>
	<rect x="40.8" y="30.5" class="st1" width="20" height="20"/>
	<path class="st2" d="M60.7,123h-20c0-13.6,8.3-29.9,15.4-39.8c3.6-5,7.5-9.7,11.3-14.2c3.6-4.3,7-8.4,10.1-12.6
		c5-6.9,11.8-17.1,11.8-25.8h20c0,14.5-8.3,27.7-15.6,37.7c-3.5,4.8-7.2,9.3-10.8,13.6c-3.7,4.5-7.2,8.7-10.5,13.2
		C65.7,104.1,60.7,116.2,60.7,123z"/>
	<g>
		<defs>
			<rect id="SVGID_1_" x="40.8" y="68.6" width="20" height="54.4"/>
		</defs>
		<clipPath id="SVGID_00000129886865352027316900000011562219426960509349_">
			<use xlink:href="#SVGID_1_"  style="overflow:visible;"/>
		</clipPath>
		<g style="clip-path:url(#SVGID_00000129886865352027316900000011562219426960509349_);">
			<g>
				<path class="st2" d="M50.7,123c0-10.4,6.8-24.7,13.5-33.9s14.6-17.6,21.3-26.8c6.5-8.9,13.7-20.4,13.7-31.7"/>
				<path class="st4" d="M60.7,123h-20c0-13.6,8.3-29.9,15.4-39.8c3.6-5,7.5-9.7,11.3-14.2c3.6-4.3,7-8.4,10.1-12.6
					c5-6.9,11.8-17.1,11.8-25.8h20c0,14.5-8.3,27.7-15.6,37.7c-3.5,4.8-7.2,9.3-10.8,13.6c-3.7,4.5-7.2,8.7-10.5,13.2
					C65.7,104.1,60.7,116.2,60.7,123z"/>
			</g>
		</g>
	</g>
</g>
</svg>
